<?xml version="1.0" encoding="iso-8859-1"?>
<!-- Generator: Adobe Illustrator 16.0.0, SVG Export Plug-In . SVG Version: 6.00 Build 0)  -->
<!DOCTYPE svg PUBLIC "-//W3C//DTD SVG 1.1//EN" "http://www.w3.org/Graphics/SVG/1.1/DTD/svg11.dtd">
<svg version="1.1" id="&#x5716;&#x5C64;_1" xmlns="http://www.w3.org/2000/svg" xmlns:xlink="http://www.w3.org/1999/xlink" x="0px"
	 y="0px" width="414.467px" height="413.694px" viewBox="0 0 414.467 413.694" style="enable-background:new 0 0 414.467 413.694;"
	 xml:space="preserve">
<g>
	<path style="fill-rule:evenodd;clip-rule:evenodd;" d="M251.021,7.247c-2.871,0.114-5.779,0.555-8.609,0.256
		c-3.216-0.349-6.411-1.171-9.516-2.119c-10.566-3.236-19.404-0.147-26.468,7.745c-3.396,3.796-6.91,6.231-12.024,6.318
		c-1.212,0.027-2.489,0.468-3.598,1.029c-8.434,4.14-17.721,5.12-26.692,7.282C90.709,45.478,35.549,105.747,24.563,180.242
		c-14.56,98.754,53.604,192.277,151.921,208.437c101.923,16.732,197.979-52.841,212.656-154.989
		c8.078-56.215-7.339-106.167-44.642-149.115c-3.257-3.753-5.256-7.418-5.806-12.462c-1.653-15.213-10.605-25.921-23.489-32.877
		c-6.645-3.595-10.823-8.247-13.457-14.892c67.625,29.636,135.208,125.614,104.415,238.062
		c-30.933,112.951-150.9,177.284-263.134,141.274C32.172,368.111-27.799,245.934,12.662,136.194
		C54.67,22.264,171.261-15.662,251.01,5.662C251.019,6.185,251.019,6.713,251.021,7.247z"/>
	<path style="fill-rule:evenodd;clip-rule:evenodd;" d="M122.368,112.5c17.035,18.759,27.147,40.273,29.813,65.269
		c1.561,14.641-0.743,28.91-3.494,43.197c-7.358,38.23,0.523,72.998,23.922,104.186c0.572,0.773,0.991,1.667,2.032,3.438
		c-23.239,4.02-44.732,0.452-65.173-9.238c-28.819-13.644-48.337-35.943-58.469-66.146C31.069,193.772,65.27,130.312,122.368,112.5z
		 M116.94,155.938c-4.698,0-8.513,3.873-8.42,8.541c0.095,4.695,3.976,8.285,8.777,8.11c4.616-0.158,7.811-3.432,7.9-8.094
		C125.296,159.604,121.758,155.938,116.94,155.938z"/>
	<path style="fill-rule:evenodd;clip-rule:evenodd;" d="M265.935,141.472c0.607-2.571,1.757-4.504,1.283-5.86
		c-4.921-14.129-14.143-23.378-29.625-25.219c-2.612-0.3-5.352,0.011-7.195-3.018c-0.618-1.013-3.605-0.893-5.474-0.757
		c-3.41,0.218-6.13-0.147-8.622-3.126c-1.996-2.397-5.057-4.031-7.874-5.594c-2.609-1.449-5.311-2.331-6.868-5.403
		c-0.722-1.405-3.173-2.185-4.992-2.734c-2.38-0.714-4.962-0.73-7.375-1.378c-9.355-2.506-15.856-7.778-18.47-17.664
		c-5.782-21.913,7.326-40.895,30.227-42.719c4.224-0.332,6.988-1.732,9.311-5.098c1.55-2.233,3.549-4.249,5.676-5.953
		c3.883-3.126,8.235-4.483,13.325-2.925c3.824,1.171,7.754,2.25,11.703,2.636c3.652,0.349,7.691,0.578,11.043-0.61
		c19.848-6.978,37.496,5.387,44.17,18.013c2.963,5.599,6.585,9.499,12.5,12.086c8.228,3.622,14.554,9.826,18.326,18.126
		c3.943,8.683,4.477,17.436-1.111,25.758c-2.208,3.301-2.721,6.76-2.759,10.654c-0.063,6.982-0.318,14.009-1.206,20.921
		c-1.092,8.48-6.52,13.23-14.843,14.685c-3.453,0.594-6.999,0.751-10.395,1.569c-3.848,0.931-8.361,1.421-11.201,3.78
		C278.427,147.485,272.28,145.748,265.935,141.472z"/>
	<path style="fill-rule:evenodd;clip-rule:evenodd;" d="M285.11,162.219c12.749,0.523,28.634,2.103,44.018,7.086
		c8.396,2.712,16.316,6.373,23.283,11.83c15.725,12.326,22.359,28.382,19.232,48.219c-3.388,21.482-19.295,39.026-39.737,42.927
		c-5.705,1.089-11.994,0.713-17.751-0.387c-10.403-1.983-17.405-8.171-19.752-19.037c-1-4.63-2.751-9.085-4.129-13.628
		c-4.891-16.144-15.488-27.119-30.704-33.894c-5.705-2.538-11.544-4.804-17.176-7.484c-3.132-1.493-6.315-3.208-8.87-5.496
		c-6.07-5.447-6.313-12.353,0.065-17.408c4.583-3.622,10.134-6.438,15.687-8.35C259.744,163.008,270.736,161.941,285.11,162.219z
		 M291.363,186.054c-0.005-5.942-4.858-10.67-11.125-10.828c-6.809-0.158-11.749,4.798-11.749,11.809
		c0.005,5.828,5.068,10.801,11.125,10.916C286.335,198.097,291.366,192.999,291.363,186.054z"/>
	<path style="fill-rule:evenodd;clip-rule:evenodd;" d="M206.061,335.747c22.528-9.794,41.02-24.489,56.281-45.737
		c3.636,26.015,12.844,47.763,28.291,66.893C268.715,364.903,223.567,353.59,206.061,335.747z"/>
	<path style="fill-rule:evenodd;clip-rule:evenodd;" d="M367.229,267.754c-6.812,16.906-33.231,36.466-57.052,31.03
		c-18.353-4.188-32.784-13.617-37.923-33.259c-0.376-1.443-0.98-2.837-1.343-4.292c-4.542-18.126-15.823-30.245-32.89-37.419
		c-5.757-2.424-11.409-5.196-16.817-8.307c-16.684-9.624-17.019-29.798-5.365-42.505c0.283-0.305,0.91-0.278,1.481-0.452
		c-0.392,2.729-0.92,5.403-1.136,8.094c-1.01,12.925,3.897,21.684,15.551,27.348c4.943,2.401,10.019,4.613,15.196,6.459
		c17.713,6.318,28.792,18.421,33.024,36.799c0.896,3.899,2.239,7.69,3.458,11.515c3.034,9.461,9.404,15.773,18.582,19.325
		c22.953,8.91,43.686,5.566,61.943-11.303C365.033,269.781,366.131,268.767,367.229,267.754z"/>
	<path style="fill-rule:evenodd;clip-rule:evenodd;" d="M199.702,187.448c-7.149-0.779-12.707-3.382-17.302-7.958
		c-4.785-4.755-5.06-8.246-1.367-13.993c3.644-5.687,7.332-11.356,10.872-17.119c5.204-8.47,7.938-17.8,8.984-27.626
		c0.283-2.686-0.046-5.458-0.21-8.17c-0.147-2.413-0.458-4.804-0.722-7.484c9.854,2.789,10.635,4.102,11.809,13.301
		c0.406,3.181,2.598,6.133,4.453,10.234c7.097-7.506,14.567-11.002,23.693-8.492c6.705,1.836,12.342,5.256,15.662,12.582
		c-15.749,2.686-25.848,12.566-34.086,24.936c-0.667,1.008-1.49,2.097-2.516,2.658c-9.573,5.359-14.805,13.867-17.857,24.047
		C200.843,185.291,200.314,186.135,199.702,187.448z"/>
	<path style="fill-rule:evenodd;clip-rule:evenodd;" d="M169.984,31.964c-2.274,5.55-6.343,5.153-9.51,6.073
		C112.616,51.932,76.318,80.5,52.663,124.309c-55.865,103.471,5.322,232.08,120.774,254.376c33.533,6.465,66.26,3.485,98.088-9.021
		c4.025-1.586,7.982-3.841,12.884-2.523C240.754,391.942,165.164,396,104.813,353.857C41.881,309.901,13.58,230.58,35.154,156.881
		c10.815-36.913,31.551-67.317,61.84-91.065C118.354,49.073,142.292,37.782,169.984,31.964z"/>
	<path style="fill-rule:evenodd;clip-rule:evenodd;" d="M338.954,86.149c26.33,29.287,41.401,62.894,45.87,101.256
		c2.748,23.594-0.215,54.085-5.836,61.792c-2.295-2.276-0.939-4.657-0.493-6.934c8.208-41.863,2.533-81.733-17.985-119.125
		c-5.741-10.463-13.481-19.81-20.24-29.718C339.02,91.59,335.896,90.256,338.954,86.149z"/>
	<path style="fill-rule:evenodd;clip-rule:evenodd;" d="M228.156,360.311c-40.911,5.12-78.208-4.178-111.899-27.876
		c0.164-0.49,0.324-0.997,0.485-1.498c4.104,1.471,8.557,2.358,12.252,4.531c28.269,16.597,58.583,23.917,91.332,21.155
		c2.669-0.218,5.466,1.057,8.206,1.64C228.406,358.939,228.281,359.62,228.156,360.311z"/>
	<path style="fill-rule:evenodd;clip-rule:evenodd;" d="M366.85,283.332c-10.142,28.83-52.458,74.556-67.265,71.642
		c1.473-0.784,3.034-1.438,4.415-2.369c23.44-15.763,42.082-35.971,56.017-60.558C361.814,288.855,364.551,286.218,366.85,283.332z"
		/>
	<path style="fill-rule:evenodd;clip-rule:evenodd;" d="M201.333,306.001c0,5.91-5.033,10.807-11.027,10.741
		c-6.021-0.082-10.869-5.093-10.665-11.041c0.193-5.725,4.826-10.245,10.6-10.344C196.284,295.254,201.333,300.097,201.333,306.001z
		"/>
	<path style="fill-rule:evenodd;clip-rule:evenodd;" d="M211.246,270.069c5.521,0.354,9.608,5.093,9.181,10.644
		c-0.425,5.588-5.057,9.526-10.706,9.128c-5.488-0.402-9.739-5.288-9.281-10.653C200.911,273.718,205.652,269.709,211.246,270.069z"
		/>
	<path style="fill-rule:evenodd;clip-rule:evenodd;" d="M175.382,186.718c-8.08,19.008-6.536,35.991,10.482,49.194
		c14.047,10.888,27.656,9.303,48.618-4.357c-3.491,7.565-14.314,13.143-26.109,13.442c-15.777,0.392-27.716-6.367-35.151-20.104
		C166.256,212.034,167.016,199.066,175.382,186.718z"/>
	<path style="fill-rule:evenodd;clip-rule:evenodd;" d="M285.486,335.54c5.82-4.342,11.359-8.148,16.52-12.419
		c4.793-3.971,9.197-8.404,13.75-12.653c2.56-2.391,2.543-2.424,8.292-2.45c-10.033,11.868-21.142,21.166-33.468,29.097
		c-0.912,0.582-2.222,0.74-3.344,0.729C286.804,337.827,286.39,336.776,285.486,335.54z"/>
	<path style="fill-rule:evenodd;clip-rule:evenodd;" d="M342.952,133.16c7.222,12.871,12.067,26.264,15.142,40.644
		c-4.742-1.689-4.608-1.749-5.926-5.278c-3.731-9.979-7.555-19.94-11.408-29.892C339.957,136.57,338.429,134.495,342.952,133.16z"/>
	<path style="fill-rule:evenodd;clip-rule:evenodd;" d="M225.522,301.579c0.087,3.605-2.903,6.711-6.568,6.803
		c-3.78,0.099-6.719-2.69-6.809-6.465c-0.098-3.813,2.664-6.699,6.474-6.792C222.336,295.042,225.427,297.935,225.522,301.579z"/>
	<path style="fill-rule:evenodd;clip-rule:evenodd;" d="M171.493,288.8c-3.72,0.038-6.751-2.838-6.822-6.481
		c-0.065-3.622,2.887-6.629,6.59-6.711c3.856-0.081,6.624,2.604,6.683,6.482C177.996,285.962,175.314,288.746,171.493,288.8z"/>
	<path style="fill-rule:evenodd;clip-rule:evenodd;" d="M203.874,327.37c-9.927,5.119-14.516,4.728-19.748-1.64
		C190.709,326.28,196.488,326.759,203.874,327.37z"/>
	<path style="fill-rule:evenodd;clip-rule:evenodd;" d="M285.755,297.504c-3.957,3.475-7.269,6.389-10.809,9.494
		c-2.291-2.026-2.443-3.541-0.422-5.644C279.546,296.093,281.384,295.217,285.755,297.504z"/>
</g>
</svg>
